PathFileType	4	(X/Y/Z)	max-elbow-flex-wide_P0_1-783_filt_butterworth_LSTM.trc
DataRate	CameraRate	NumFrames	NumMarkers	Units	OrigDataRate	OrigDataStartFrame	OrigNumFrames
60	60	62	3	m	60	489	782
Frame#	Time	r_acromion			r_humerus_epicondyle			r_radius_styloid		
X1	Y1	Z1	X2	Y2	Z2	X3	Y3	Z3
489	8.15	0.010800000000000032	0.8230999999999999	0.17000000000000004	0.24650000000000005	0.6927999999999999	0.2513000000000002	0.21020000000000005	0.9051	0.17820000000000025
490	8.1667	0.01100000000000001	0.8231999999999999	0.17020000000000024	0.24650000000000005	0.6926999999999999	0.25090000000000023	0.2138	0.9057	0.1786000000000002
491	8.1833	0.011400000000000021	0.8231999999999999	0.1705000000000002	0.24660000000000004	0.6926999999999999	0.25080000000000024	0.2178	0.9062999999999999	0.17940000000000011
492	8.2	0.011900000000000022	0.8233999999999999	0.17100000000000015	0.24670000000000003	0.6926999999999999	0.25080000000000024	0.2219	0.9069	0.18030000000000024
493	8.2167	0.012300000000000033	0.8236999999999999	0.1715000000000001	0.2469	0.6929999999999998	0.2511000000000002	0.22609999999999997	0.9075	0.18140000000000012
494	8.2333	0.012400000000000022	0.8239999999999998	0.17220000000000024	0.24719999999999998	0.6935	0.2514000000000002	0.2309	0.9083999999999999	0.18280000000000018
495	8.25	0.012400000000000022	0.8243	0.17320000000000013	0.24780000000000002	0.6941999999999999	0.25150000000000017	0.23660000000000003	0.9097	0.18450000000000022
496	8.2667	0.012400000000000022	0.8245	0.17440000000000022	0.24870000000000003	0.6952	0.25160000000000016	0.24319999999999997	0.9117	0.1867000000000002
497	8.2833	0.012500000000000011	0.8244	0.17580000000000007	0.24970000000000003	0.6962999999999999	0.25150000000000017	0.2501	0.9139999999999999	0.18900000000000017
498	8.3	0.012700000000000045	0.8242	0.17720000000000014	0.25070000000000003	0.6973	0.2514000000000002	0.25660000000000005	0.9162999999999999	0.19130000000000014
499	8.3167	0.0131	0.8238999999999999	0.17840000000000023	0.25140000000000007	0.6981999999999999	0.2513000000000002	0.26270000000000004	0.9181999999999999	0.19340000000000013
500	8.3333	0.013600000000000001	0.8235999999999999	0.1796000000000001	0.2519	0.6990999999999998	0.2511000000000002	0.26870000000000005	0.9194	0.19520000000000015
501	8.35	0.01419999999999999	0.8231999999999999	0.1807000000000002	0.2519	0.7	0.2510000000000002	0.27480000000000004	0.9199999999999999	0.19690000000000019
502	8.3667	0.014800000000000035	0.823	0.1816000000000001	0.25170000000000003	0.7007999999999999	0.2510000000000002	0.2812	0.9200999999999999	0.19830000000000025
503	8.3833	0.015300000000000036	0.8229	0.18250000000000022	0.25129999999999997	0.7016	0.2510000000000002	0.28770000000000007	0.9198	0.1996000000000001
504	8.4	0.015600000000000003	0.8230999999999999	0.18310000000000015	0.2509	0.7023999999999999	0.2511000000000002	0.29390000000000005	0.9193	0.20060000000000022
505	8.4167	0.015600000000000003	0.8234999999999999	0.18370000000000009	0.25060000000000004	0.7029999999999998	0.2514000000000002	0.30000000000000004	0.9187999999999998	0.2017000000000001
506	8.4333	0.015500000000000014	0.8238999999999999	0.18440000000000023	0.25040000000000007	0.7036	0.25170000000000015	0.30569999999999997	0.9181999999999999	0.2029000000000002
507	8.45	0.015300000000000036	0.8242	0.18510000000000015	0.25040000000000007	0.7041	0.2520000000000001	0.3114	0.9177	0.20440000000000025
508	8.4667	0.015000000000000013	0.8244	0.18610000000000004	0.25070000000000003	0.7046999999999999	0.2523000000000001	0.31700000000000006	0.9174	0.20600000000000007
509	8.4833	0.014800000000000035	0.8245	0.18720000000000014	0.2509	0.7055	0.25270000000000026	0.3227	0.9172	0.2077000000000001
510	8.5	0.014400000000000024	0.8245	0.18840000000000023	0.2512	0.7063999999999999	0.2530000000000002	0.3284	0.9172	0.20930000000000015
511	8.5167	0.013800000000000034	0.8243	0.18940000000000012	0.25160000000000005	0.7073	0.2533000000000002	0.33420000000000005	0.9176	0.2108000000000002
512	8.5333	0.01319999999999999	0.8240999999999998	0.19010000000000005	0.2522	0.7081	0.25350000000000017	0.3405	0.9183999999999999	0.21220000000000006
513	8.55	0.012400000000000022	0.8236999999999999	0.1906000000000002	0.253	0.7090999999999998	0.25360000000000016	0.3479	0.9195	0.2138000000000001
514	8.5667	0.0116	0.8230999999999999	0.19090000000000018	0.2541	0.7102999999999999	0.25380000000000014	0.35630000000000006	0.9206999999999999	0.2157000000000001
515	8.5833	0.01090000000000002	0.8226	0.19110000000000016	0.255	0.7118	0.2542000000000001	0.36450000000000005	0.9216	0.21820000000000006
516	8.6	0.010300000000000031	0.8222	0.19100000000000017	0.25570000000000004	0.7136	0.25470000000000026	0.37160000000000004	0.9219999999999999	0.22110000000000019
517	8.6167	0.009800000000000031	0.8219999999999998	0.19090000000000018	0.2561	0.7155	0.2552000000000002	0.37729999999999997	0.9217	0.22420000000000007
518	8.6333	0.009599999999999997	0.8218999999999999	0.1907000000000002	0.2563	0.7174	0.25580000000000014	0.3821	0.9204999999999999	0.22720000000000018
519	8.65	0.009599999999999997	0.8219999999999998	0.19050000000000022	0.25650000000000006	0.7191999999999998	0.2561000000000001	0.38680000000000003	0.9186999999999999	0.23020000000000007
520	8.6667	0.009599999999999997	0.8220999999999998	0.19030000000000025	0.257	0.7210999999999999	0.2562000000000001	0.39150000000000007	0.9165999999999999	0.23330000000000017
521	8.6833	0.009599999999999997	0.8222	0.19030000000000025	0.25760000000000005	0.7228999999999999	0.2560000000000001	0.3961	0.9144999999999999	0.23620000000000008
522	8.7	0.00930000000000003	0.8222	0.19050000000000022	0.25839999999999996	0.7243999999999999	0.25570000000000015	0.4001	0.9126999999999998	0.23870000000000025
523	8.7167	0.008500000000000008	0.8222	0.19090000000000018	0.2593	0.7255	0.2552000000000002	0.4034	0.9112	0.24070000000000025
524	8.7333	0.007300000000000029	0.8220999999999998	0.1916000000000001	0.2603	0.7263	0.25440000000000007	0.4064	0.9097999999999999	0.24260000000000026
525	8.75	0.005800000000000027	0.8219999999999998	0.19240000000000024	0.2613	0.7269999999999999	0.2534000000000002	0.40970000000000006	0.9080999999999999	0.24450000000000005
526	8.7667	0.0047000000000000375	0.8218999999999999	0.19310000000000016	0.26239999999999997	0.7276	0.2520000000000001	0.41390000000000005	0.9060999999999999	0.24640000000000006
527	8.7833	0.0040000000000000036	0.8216999999999999	0.1936000000000001	0.26370000000000005	0.7282	0.25040000000000007	0.4192	0.9036	0.24840000000000007
528	8.8	0.0038000000000000256	0.8215999999999999	0.19390000000000007	0.2651	0.7287999999999999	0.24900000000000022	0.42500000000000004	0.9009	0.25040000000000007
529	8.8167	0.0040000000000000036	0.8215999999999999	0.19390000000000007	0.26660000000000006	0.7296	0.24780000000000013	0.4306	0.8980999999999999	0.25250000000000006
530	8.8333	0.0040999999999999925	0.8215999999999999	0.1936000000000001	0.2679	0.7305999999999999	0.2472000000000002	0.4354	0.8953	0.25480000000000025
531	8.85	0.0038000000000000256	0.8216999999999999	0.19310000000000016	0.26880000000000004	0.7318	0.24690000000000023	0.4396	0.8923999999999999	0.2571000000000002
532	8.8667	0.0030999999999999917	0.8218999999999999	0.19250000000000023	0.2694	0.7332999999999998	0.24690000000000023	0.4433	0.8889	0.25960000000000016
533	8.8833	0.0024000000000000132	0.8222	0.19210000000000005	0.27	0.7349999999999999	0.24700000000000022	0.44700000000000006	0.8847	0.2621000000000001
534	8.9	0.0018000000000000238	0.8226	0.19200000000000006	0.27070000000000005	0.7368999999999999	0.24700000000000022	0.4505	0.8801999999999999	0.26450000000000007
535	8.9167	0.0014000000000000123	0.8230999999999999	0.19200000000000006	0.27170000000000005	0.7387999999999999	0.24680000000000024	0.4537	0.8757999999999999	0.26650000000000007
536	8.9333	0.0013000000000000234	0.8234999999999999	0.19190000000000007	0.27290000000000003	0.7406999999999999	0.24640000000000006	0.4567	0.8719999999999999	0.26860000000000006
537	8.95	0.0015000000000000013	0.8239999999999998	0.1917000000000001	0.2743	0.7424999999999999	0.24570000000000014	0.4598	0.8686	0.27100000000000024
538	8.9667	0.0018000000000000238	0.8245	0.19140000000000013	0.27560000000000007	0.7444	0.24480000000000024	0.46310000000000007	0.8654	0.2741000000000001
539	8.9833	0.0024000000000000132	0.825	0.19100000000000017	0.27670000000000006	0.7462	0.24380000000000013	0.46630000000000005	0.8621999999999999	0.27790000000000015
540	9.0	0.0030999999999999917	0.8255999999999999	0.1907000000000002	0.2774	0.748	0.24270000000000025	0.4691000000000001	0.859	0.2817000000000002
541	9.0167	0.003599999999999992	0.8260999999999998	0.19050000000000022	0.27780000000000005	0.7497	0.24150000000000016	0.4716	0.8553	0.28490000000000004
542	9.0333	0.0040000000000000036	0.8264	0.1906000000000002	0.278	0.7511999999999999	0.24030000000000007	0.47409999999999997	0.8509	0.28710000000000024
543	9.05	0.0040999999999999925	0.8265	0.19090000000000018	0.27790000000000004	0.7525999999999999	0.2391000000000002	0.4768	0.8454999999999999	0.2884000000000001
544	9.0667	0.0039000000000000146	0.8263	0.19140000000000013	0.27770000000000006	0.7541	0.23770000000000013	0.4796	0.8392999999999999	0.28890000000000005
545	9.0833	0.003500000000000003	0.8259999999999998	0.19200000000000006	0.27749999999999997	0.7553999999999998	0.23650000000000004	0.482	0.8331	0.28910000000000025
546	9.1	0.0030999999999999917	0.8256999999999999	0.19240000000000024	0.27760000000000007	0.7565	0.23530000000000018	0.4837	0.8275999999999999	0.28920000000000023
547	9.1167	0.0029000000000000137	0.8254999999999999	0.19260000000000022	0.27770000000000006	0.7573999999999999	0.23440000000000005	0.48450000000000004	0.8230999999999999	0.2896000000000002
548	9.1333	0.0028000000000000247	0.8253999999999999	0.19260000000000022	0.27790000000000004	0.758	0.23360000000000014	0.4849	0.8191999999999999	0.2905000000000001
549	9.15	0.0028000000000000247	0.8254999999999999	0.19260000000000022	0.2782	0.7585999999999999	0.2330000000000002	0.48530000000000006	0.8154999999999999	0.29210000000000014
550	9.1667	0.0030000000000000027	0.8257999999999999	0.19250000000000023	0.27870000000000006	0.7590999999999999	0.23250000000000004	0.4859	0.8114999999999999	0.2945000000000001
